solid cone
  facet normal 8.94211664e-01 2.19516642e-02 4.47105832e-01
    outer loop
      vertex 3.00000000e+00 0.00000000e+00 0.00000000e+00
      vertex 2.99638637e+00 1.47203023e-01 0.00000000e+00
      vertex 0.00000000e+00 0.00000000e+00 6.00000000e+00
    endloop
  endfacet
  facet normal 8.92057430e-01 6.58021092e-02 4.47105832e-01
    outer loop
      vertex 2.99638637e+00 1.47203023e-01 0.00000000e+00
      vertex 2.98555418e+00 2.94051421e-01 0.00000000e+00
      vertex 0.00000000e+00 0.00000000e+00 6.00000000e+00
    endloop
  endfacet
  facet normal 8.87754151e-01 1.09494031e-01 4.47105832e-01
    outer loop
      vertex 2.98555418e+00 2.94051421e-01 0.00000000e+00
      vertex 2.96752953e+00 4.40191423e-01 0.00000000e+00
      vertex 0.00000000e+00 0.00000000e+00 6.00000000e+00
    endloop
  endfacet
  facet normal 8.81312195e-01 1.52922172e-01 4.47105832e-01
    outer loop
      vertex 2.96752953e+00 4.40191423e-01 0.00000000e+00
      vertex 2.94235584e+00 5.85270966e-01 0.00000000e+00
      vertex 0.00000000e+00 0.00000000e+00 6.00000000e+00
    endloop
  endfacet
  facet normal 8.72747080e-01 1.95981911e-01 4.47105832e-01
    outer loop
      vertex 2.94235584e+00 5.85270966e-01 0.00000000e+00
      vertex 2.91009376e+00 7.28940540e-01 0.00000000e+00
      vertex 0.00000000e+00 0.00000000e+00 6.00000000e+00
    endloop
  endfacet
  facet normal 8.62079441e-01 2.38569511e-01 4.47105832e-01
    outer loop
      vertex 2.91009376e+00 7.28940540e-01 0.00000000e+00
      vertex 2.87082101e+00 8.70854032e-01 0.00000000e+00
      vertex 0.00000000e+00 0.00000000e+00 6.00000000e+00
    endloop
  endfacet
  facet normal 8.49334978e-01 2.80582377e-01 4.47105832e-01
    outer loop
      vertex 2.87082101e+00 8.70854032e-01 0.00000000e+00
      vertex 2.82463220e+00 1.01066956e+00 0.00000000e+00
      vertex 0.00000000e+00 0.00000000e+00 6.00000000e+00
    endloop
  endfacet
  facet normal 8.34544392e-01 3.21919295e-01 4.47105832e-01
    outer loop
      vertex 2.82463220e+00 1.01066956e+00 0.00000000e+00
      vertex 2.77163860e+00 1.14805030e+00 0.00000000e+00
      vertex 0.00000000e+00 0.00000000e+00 6.00000000e+00
    endloop
  endfacet
  facet normal 8.17743316e-01 3.62480682e-01 4.47105832e-01
    outer loop
      vertex 2.77163860e+00 1.14805030e+00 0.00000000e+00
      vertex 2.71196788e+00 1.28266528e+00 0.00000000e+00
      vertex 0.00000000e+00 0.00000000e+00 6.00000000e+00
    endloop
  endfacet
  facet normal 7.98972224e-01 4.02168821e-01 4.47105832e-01
    outer loop
      vertex 2.71196788e+00 1.28266528e+00 0.00000000e+00
      vertex 2.64576379e+00 1.41419021e+00 0.00000000e+00
      vertex 0.00000000e+00 0.00000000e+00 6.00000000e+00
    endloop
  endfacet
  facet normal 7.78276338e-01 4.40888100e-01 4.47105832e-01
    outer loop
      vertex 2.64576379e+00 1.41419021e+00 0.00000000e+00
      vertex 2.57318583e+00 1.54230823e+00 0.00000000e+00
      vertex 0.00000000e+00 0.00000000e+00 6.00000000e+00
    endloop
  endfacet
  facet normal 7.55705517e-01 4.78545241e-01 4.47105832e-01
    outer loop
      vertex 2.57318583e+00 1.54230823e+00 0.00000000e+00
      vertex 2.49440884e+00 1.66671070e+00 0.00000000e+00
      vertex 0.00000000e+00 0.00000000e+00 6.00000000e+00
    endloop
  endfacet
  facet normal 7.31314134e-01 5.15049524e-01 4.47105832e-01
    outer loop
      vertex 2.49440884e+00 1.66671070e+00 0.00000000e+00
      vertex 2.40962259e+00 1.78709791e+00 0.00000000e+00
      vertex 0.00000000e+00 0.00000000e+00 6.00000000e+00
    endloop
  endfacet
  facet normal 7.05160952e-01 5.50313008e-01 4.47105832e-01
    outer loop
      vertex 2.40962259e+00 1.78709791e+00 0.00000000e+00
      vertex 2.31903136e+00 1.90317985e+00 0.00000000e+00
      vertex 0.00000000e+00 0.00000000e+00 6.00000000e+00
    endloop
  endfacet
  facet normal 6.77308975e-01 5.84250740e-01 4.47105832e-01
    outer loop
      vertex 2.31903136e+00 1.90317985e+00 0.00000000e+00
      vertex 2.22285338e+00 2.01467686e+00 0.00000000e+00
      vertex 0.00000000e+00 0.00000000e+00 6.00000000e+00
    endloop
  endfacet
  facet normal 6.47825302e-01 6.16780961e-01 4.47105832e-01
    outer loop
      vertex 2.22285338e+00 2.01467686e+00 0.00000000e+00
      vertex 2.12132034e+00 2.12132034e+00 0.00000000e+00
      vertex 0.00000000e+00 0.00000000e+00 6.00000000e+00
    endloop
  endfacet
  facet normal 6.16780961e-01 6.47825302e-01 4.47105832e-01
    outer loop
      vertex 2.12132034e+00 2.12132034e+00 0.00000000e+00
      vertex 2.01467686e+00 2.22285338e+00 0.00000000e+00
      vertex 0.00000000e+00 0.00000000e+00 6.00000000e+00
    endloop
  endfacet
  facet normal 5.84250740e-01 6.77308975e-01 4.47105832e-01
    outer loop
      vertex 2.01467686e+00 2.22285338e+00 0.00000000e+00
      vertex 1.90317985e+00 2.31903136e+00 0.00000000e+00
      vertex 0.00000000e+00 0.00000000e+00 6.00000000e+00
    endloop
  endfacet
  facet normal 5.50313008e-01 7.05160952e-01 4.47105832e-01
    outer loop
      vertex 1.90317985e+00 2.31903136e+00 0.00000000e+00
      vertex 1.78709791e+00 2.40962259e+00 0.00000000e+00
      vertex 0.00000000e+00 0.00000000e+00 6.00000000e+00
    endloop
  endfacet
  facet normal 5.15049524e-01 7.31314134e-01 4.47105832e-01
    outer loop
      vertex 1.78709791e+00 2.40962259e+00 0.00000000e+00
      vertex 1.66671070e+00 2.49440884e+00 0.00000000e+00
      vertex 0.00000000e+00 0.00000000e+00 6.00000000e+00
    endloop
  endfacet
  facet normal 4.78545241e-01 7.55705517e-01 4.47105832e-01
    outer loop
      vertex 1.66671070e+00 2.49440884e+00 0.00000000e+00
      vertex 1.54230823e+00 2.57318583e+00 0.00000000e+00
      vertex 0.00000000e+00 0.00000000e+00 6.00000000e+00
    endloop
  endfacet
  facet normal 4.40888100e-01 7.78276338e-01 4.47105832e-01
    outer loop
      vertex 1.54230823e+00 2.57318583e+00 0.00000000e+00
      vertex 1.41419021e+00 2.64576379e+00 0.00000000e+00
      vertex 0.00000000e+00 0.00000000e+00 6.00000000e+00
    endloop
  endfacet
  facet normal 4.02168821e-01 7.98972224e-01 4.47105832e-01
    outer loop
      vertex 1.41419021e+00 2.64576379e+00 0.00000000e+00
      vertex 1.28266528e+00 2.71196788e+00 0.00000000e+00
      vertex 0.00000000e+00 0.00000000e+00 6.00000000e+00
    endloop
  endfacet
  facet normal 3.62480682e-01 8.17743316e-01 4.47105832e-01
    outer loop
      vertex 1.28266528e+00 2.71196788e+00 0.00000000e+00
      vertex 1.14805030e+00 2.77163860e+00 0.00000000e+00
      vertex 0.00000000e+00 0.00000000e+00 6.00000000e+00
    endloop
  endfacet
  facet normal 3.21919295e-01 8.34544392e-01 4.47105832e-01
    outer loop
      vertex 1.14805030e+00 2.77163860e+00 0.00000000e+00
      vertex 1.01066956e+00 2.82463220e+00 0.00000000e+00
      vertex 0.00000000e+00 0.00000000e+00 6.00000000e+00
    endloop
  endfacet
  facet normal 2.80582377e-01 8.49334978e-01 4.47105832e-01
    outer loop
      vertex 1.01066956e+00 2.82463220e+00 0.00000000e+00
      vertex 8.70854032e-01 2.87082101e+00 0.00000000e+00
      vertex 0.00000000e+00 0.00000000e+00 6.00000000e+00
    endloop
  endfacet
  facet normal 2.38569511e-01 8.62079441e-01 4.47105832e-01
    outer loop
      vertex 8.70854032e-01 2.87082101e+00 0.00000000e+00
      vertex 7.28940540e-01 2.91009376e+00 0.00000000e+00
      vertex 0.00000000e+00 0.00000000e+00 6.00000000e+00
    endloop
  endfacet
  facet normal 1.95981911e-01 8.72747080e-01 4.47105832e-01
    outer loop
      vertex 7.28940540e-01 2.91009376e+00 0.00000000e+00
      vertex 5.85270966e-01 2.94235584e+00 0.00000000e+00
      vertex 0.00000000e+00 0.00000000e+00 6.00000000e+00
    endloop
  endfacet
  facet normal 1.52922172e-01 8.81312195e-01 4.47105832e-01
    outer loop
      vertex 5.85270966e-01 2.94235584e+00 0.00000000e+00
      vertex 4.40191423e-01 2.96752953e+00 0.00000000e+00
      vertex 0.00000000e+00 0.00000000e+00 6.00000000e+00
    endloop
  endfacet
  facet normal 1.09494031e-01 8.87754151e-01 4.47105832e-01
    outer loop
      vertex 4.40191423e-01 2.96752953e+00 0.00000000e+00
      vertex 2.94051421e-01 2.98555418e+00 0.00000000e+00
      vertex 0.00000000e+00 0.00000000e+00 6.00000000e+00
    endloop
  endfacet
  facet normal 6.58021092e-02 8.92057430e-01 4.47105832e-01
    outer loop
      vertex 2.94051421e-01 2.98555418e+00 0.00000000e+00
      vertex 1.47203023e-01 2.99638637e+00 0.00000000e+00
      vertex 0.00000000e+00 0.00000000e+00 6.00000000e+00
    endloop
  endfacet
  facet normal 2.19516642e-02 8.94211664e-01 4.47105832e-01
    outer loop
      vertex 1.47203023e-01 2.99638637e+00 0.00000000e+00
      vertex 1.83697020e-16 3.00000000e+00 0.00000000e+00
      vertex 0.00000000e+00 0.00000000e+00 6.00000000e+00
    endloop
  endfacet
  facet normal -2.19516642e-02 8.94211664e-01 4.47105832e-01
    outer loop
      vertex 1.83697020e-16 3.00000000e+00 0.00000000e+00
      vertex -1.47203023e-01 2.99638637e+00 0.00000000e+00
      vertex 0.00000000e+00 0.00000000e+00 6.00000000e+00
    endloop
  endfacet
  facet normal -6.58021092e-02 8.92057430e-01 4.47105832e-01
    outer loop
      vertex -1.47203023e-01 2.99638637e+00 0.00000000e+00
      vertex -2.94051421e-01 2.98555418e+00 0.00000000e+00
      vertex 0.00000000e+00 0.00000000e+00 6.00000000e+00
    endloop
  endfacet
  facet normal -1.09494031e-01 8.87754151e-01 4.47105832e-01
    outer loop
      vertex -2.94051421e-01 2.98555418e+00 0.00000000e+00
      vertex -4.40191423e-01 2.96752953e+00 0.00000000e+00
      vertex 0.00000000e+00 0.00000000e+00 6.00000000e+00
    endloop
  endfacet
  facet normal -1.52922172e-01 8.81312195e-01 4.47105832e-01
    outer loop
      vertex -4.40191423e-01 2.96752953e+00 0.00000000e+00
      vertex -5.85270966e-01 2.94235584e+00 0.00000000e+00
      vertex 0.00000000e+00 0.00000000e+00 6.00000000e+00
    endloop
  endfacet
  facet normal -1.95981911e-01 8.72747080e-01 4.47105832e-01
    outer loop
      vertex -5.85270966e-01 2.94235584e+00 0.00000000e+00
      vertex -7.28940540e-01 2.91009376e+00 0.00000000e+00
      vertex 0.00000000e+00 0.00000000e+00 6.00000000e+00
    endloop
  endfacet
  facet normal -2.38569511e-01 8.62079441e-01 4.47105832e-01
    outer loop
      vertex -7.28940540e-01 2.91009376e+00 0.00000000e+00
      vertex -8.70854032e-01 2.87082101e+00 0.00000000e+00
      vertex 0.00000000e+00 0.00000000e+00 6.00000000e+00
    endloop
  endfacet
  facet normal -2.80582377e-01 8.49334978e-01 4.47105832e-01
    outer loop
      vertex -8.70854032e-01 2.87082101e+00 0.00000000e+00
      vertex -1.01066956e+00 2.82463220e+00 0.00000000e+00
      vertex 0.00000000e+00 0.00000000e+00 6.00000000e+00
    endloop
  endfacet
  facet normal -3.21919295e-01 8.34544392e-01 4.47105832e-01
    outer loop
      vertex -1.01066956e+00 2.82463220e+00 0.00000000e+00
      vertex -1.14805030e+00 2.77163860e+00 0.00000000e+00
      vertex 0.00000000e+00 0.00000000e+00 6.00000000e+00
    endloop
  endfacet
  facet normal -3.62480682e-01 8.17743316e-01 4.47105832e-01
    outer loop
      vertex -1.14805030e+00 2.77163860e+00 0.00000000e+00
      vertex -1.28266528e+00 2.71196788e+00 0.00000000e+00
      vertex 0.00000000e+00 0.00000000e+00 6.00000000e+00
    endloop
  endfacet
  facet normal -4.02168821e-01 7.98972224e-01 4.47105832e-01
    outer loop
      vertex -1.28266528e+00 2.71196788e+00 0.00000000e+00
      vertex -1.41419021e+00 2.64576379e+00 0.00000000e+00
      vertex 0.00000000e+00 0.00000000e+00 6.00000000e+00
    endloop
  endfacet
  facet normal -4.40888100e-01 7.78276338e-01 4.47105832e-01
    outer loop
      vertex -1.41419021e+00 2.64576379e+00 0.00000000e+00
      vertex -1.54230823e+00 2.57318583e+00 0.00000000e+00
      vertex 0.00000000e+00 0.00000000e+00 6.00000000e+00
    endloop
  endfacet
  facet normal -4.78545241e-01 7.55705517e-01 4.47105832e-01
    outer loop
      vertex -1.54230823e+00 2.57318583e+00 0.00000000e+00
      vertex -1.66671070e+00 2.49440884e+00 0.00000000e+00
      vertex 0.00000000e+00 0.00000000e+00 6.00000000e+00
    endloop
  endfacet
  facet normal -5.15049524e-01 7.31314134e-01 4.47105832e-01
    outer loop
      vertex -1.66671070e+00 2.49440884e+00 0.00000000e+00
      vertex -1.78709791e+00 2.40962259e+00 0.00000000e+00
      vertex 0.00000000e+00 0.00000000e+00 6.00000000e+00
    endloop
  endfacet
  facet normal -5.50313008e-01 7.05160952e-01 4.47105832e-01
    outer loop
      vertex -1.78709791e+00 2.40962259e+00 0.00000000e+00
      vertex -1.90317985e+00 2.31903136e+00 0.00000000e+00
      vertex 0.00000000e+00 0.00000000e+00 6.00000000e+00
    endloop
  endfacet
  facet normal -5.84250740e-01 6.77308975e-01 4.47105832e-01
    outer loop
      vertex -1.90317985e+00 2.31903136e+00 0.00000000e+00
      vertex -2.01467686e+00 2.22285338e+00 0.00000000e+00
      vertex 0.00000000e+00 0.00000000e+00 6.00000000e+00
    endloop
  endfacet
  facet normal -6.16780961e-01 6.47825302e-01 4.47105832e-01
    outer loop
      vertex -2.01467686e+00 2.22285338e+00 0.00000000e+00
      vertex -2.12132034e+00 2.12132034e+00 0.00000000e+00
      vertex 0.00000000e+00 0.00000000e+00 6.00000000e+00
    endloop
  endfacet
  facet normal -6.47825302e-01 6.16780961e-01 4.47105832e-01
    outer loop
      vertex -2.12132034e+00 2.12132034e+00 0.00000000e+00
      vertex -2.22285338e+00 2.01467686e+00 0.00000000e+00
      vertex 0.00000000e+00 0.00000000e+00 6.00000000e+00
    endloop
  endfacet
  facet normal -6.77308975e-01 5.84250740e-01 4.47105832e-01
    outer loop
      vertex -2.22285338e+00 2.01467686e+00 0.00000000e+00
      vertex -2.31903136e+00 1.90317985e+00 0.00000000e+00
      vertex 0.00000000e+00 0.00000000e+00 6.00000000e+00
    endloop
  endfacet
  facet normal -7.05160952e-01 5.50313008e-01 4.47105832e-01
    outer loop
      vertex -2.31903136e+00 1.90317985e+00 0.00000000e+00
      vertex -2.40962259e+00 1.78709791e+00 0.00000000e+00
      vertex 0.00000000e+00 0.00000000e+00 6.00000000e+00
    endloop
  endfacet
  facet normal -7.31314134e-01 5.15049524e-01 4.47105832e-01
    outer loop
      vertex -2.40962259e+00 1.78709791e+00 0.00000000e+00
      vertex -2.49440884e+00 1.66671070e+00 0.00000000e+00
      vertex 0.00000000e+00 0.00000000e+00 6.00000000e+00
    endloop
  endfacet
  facet normal -7.55705517e-01 4.78545241e-01 4.47105832e-01
    outer loop
      vertex -2.49440884e+00 1.66671070e+00 0.00000000e+00
      vertex -2.57318583e+00 1.54230823e+00 0.00000000e+00
      vertex 0.00000000e+00 0.00000000e+00 6.00000000e+00
    endloop
  endfacet
  facet normal -7.78276338e-01 4.40888100e-01 4.47105832e-01
    outer loop
      vertex -2.57318583e+00 1.54230823e+00 0.00000000e+00
      vertex -2.64576379e+00 1.41419021e+00 0.00000000e+00
      vertex 0.00000000e+00 0.00000000e+00 6.00000000e+00
    endloop
  endfacet
  facet normal -7.98972224e-01 4.02168821e-01 4.47105832e-01
    outer loop
      vertex -2.64576379e+00 1.41419021e+00 0.00000000e+00
      vertex -2.71196788e+00 1.28266528e+00 0.00000000e+00
      vertex 0.00000000e+00 0.00000000e+00 6.00000000e+00
    endloop
  endfacet
  facet normal -8.17743316e-01 3.62480682e-01 4.47105832e-01
    outer loop
      vertex -2.71196788e+00 1.28266528e+00 0.00000000e+00
      vertex -2.77163860e+00 1.14805030e+00 0.00000000e+00
      vertex 0.00000000e+00 0.00000000e+00 6.00000000e+00
    endloop
  endfacet
  facet normal -8.34544392e-01 3.21919295e-01 4.47105832e-01
    outer loop
      vertex -2.77163860e+00 1.14805030e+00 0.00000000e+00
      vertex -2.82463220e+00 1.01066956e+00 0.00000000e+00
      vertex 0.00000000e+00 0.00000000e+00 6.00000000e+00
    endloop
  endfacet
  facet normal -8.49334978e-01 2.80582377e-01 4.47105832e-01
    outer loop
      vertex -2.82463220e+00 1.01066956e+00 0.00000000e+00
      vertex -2.87082101e+00 8.70854032e-01 0.00000000e+00
      vertex 0.00000000e+00 0.00000000e+00 6.00000000e+00
    endloop
  endfacet
  facet normal -8.62079441e-01 2.38569511e-01 4.47105832e-01
    outer loop
      vertex -2.87082101e+00 8.70854032e-01 0.00000000e+00
      vertex -2.91009376e+00 7.28940540e-01 0.00000000e+00
      vertex 0.00000000e+00 0.00000000e+00 6.00000000e+00
    endloop
  endfacet
  facet normal -8.72747080e-01 1.95981911e-01 4.47105832e-01
    outer loop
      vertex -2.91009376e+00 7.28940540e-01 0.00000000e+00
      vertex -2.94235584e+00 5.85270966e-01 0.00000000e+00
      vertex 0.00000000e+00 0.00000000e+00 6.00000000e+00
    endloop
  endfacet
  facet normal -8.81312195e-01 1.52922172e-01 4.47105832e-01
    outer loop
      vertex -2.94235584e+00 5.85270966e-01 0.00000000e+00
      vertex -2.96752953e+00 4.40191423e-01 0.00000000e+00
      vertex 0.00000000e+00 0.00000000e+00 6.00000000e+00
    endloop
  endfacet
  facet normal -8.87754151e-01 1.09494031e-01 4.47105832e-01
    outer loop
      vertex -2.96752953e+00 4.40191423e-01 0.00000000e+00
      vertex -2.98555418e+00 2.94051421e-01 0.00000000e+00
      vertex 0.00000000e+00 0.00000000e+00 6.00000000e+00
    endloop
  endfacet
  facet normal -8.92057430e-01 6.58021092e-02 4.47105832e-01
    outer loop
      vertex -2.98555418e+00 2.94051421e-01 0.00000000e+00
      vertex -2.99638637e+00 1.47203023e-01 0.00000000e+00
      vertex 0.00000000e+00 0.00000000e+00 6.00000000e+00
    endloop
  endfacet
  facet normal -8.94211664e-01 2.19516642e-02 4.47105832e-01
    outer loop
      vertex -2.99638637e+00 1.47203023e-01 0.00000000e+00
      vertex -3.00000000e+00 3.67394040e-16 0.00000000e+00
      vertex 0.00000000e+00 0.00000000e+00 6.00000000e+00
    endloop
  endfacet
  facet normal -8.94211664e-01 -2.19516642e-02 4.47105832e-01
    outer loop
      vertex -3.00000000e+00 3.67394040e-16 0.00000000e+00
      vertex -2.99638637e+00 -1.47203023e-01 0.00000000e+00
      vertex 0.00000000e+00 0.00000000e+00 6.00000000e+00
    endloop
  endfacet
  facet normal -8.92057430e-01 -6.58021092e-02 4.47105832e-01
    outer loop
      vertex -2.99638637e+00 -1.47203023e-01 0.00000000e+00
      vertex -2.98555418e+00 -2.94051421e-01 0.00000000e+00
      vertex 0.00000000e+00 0.00000000e+00 6.00000000e+00
    endloop
  endfacet
  facet normal -8.87754151e-01 -1.09494031e-01 4.47105832e-01
    outer loop
      vertex -2.98555418e+00 -2.94051421e-01 0.00000000e+00
      vertex -2.96752953e+00 -4.40191423e-01 0.00000000e+00
      vertex 0.00000000e+00 0.00000000e+00 6.00000000e+00
    endloop
  endfacet
  facet normal -8.81312195e-01 -1.52922172e-01 4.47105832e-01
    outer loop
      vertex -2.96752953e+00 -4.40191423e-01 0.00000000e+00
      vertex -2.94235584e+00 -5.85270966e-01 0.00000000e+00
      vertex 0.00000000e+00 0.00000000e+00 6.00000000e+00
    endloop
  endfacet
  facet normal -8.72747080e-01 -1.95981911e-01 4.47105832e-01
    outer loop
      vertex -2.94235584e+00 -5.85270966e-01 0.00000000e+00
      vertex -2.91009376e+00 -7.28940540e-01 0.00000000e+00
      vertex 0.00000000e+00 0.00000000e+00 6.00000000e+00
    endloop
  endfacet
  facet normal -8.62079441e-01 -2.38569511e-01 4.47105832e-01
    outer loop
      vertex -2.91009376e+00 -7.28940540e-01 0.00000000e+00
      vertex -2.87082101e+00 -8.70854032e-01 0.00000000e+00
      vertex 0.00000000e+00 0.00000000e+00 6.00000000e+00
    endloop
  endfacet
  facet normal -8.49334978e-01 -2.80582377e-01 4.47105832e-01
    outer loop
      vertex -2.87082101e+00 -8.70854032e-01 0.00000000e+00
      vertex -2.82463220e+00 -1.01066956e+00 0.00000000e+00
      vertex 0.00000000e+00 0.00000000e+00 6.00000000e+00
    endloop
  endfacet
  facet normal -8.34544392e-01 -3.21919295e-01 4.47105832e-01
    outer loop
      vertex -2.82463220e+00 -1.01066956e+00 0.00000000e+00
      vertex -2.77163860e+00 -1.14805030e+00 0.00000000e+00
      vertex 0.00000000e+00 0.00000000e+00 6.00000000e+00
    endloop
  endfacet
  facet normal -8.17743316e-01 -3.62480682e-01 4.47105832e-01
    outer loop
      vertex -2.77163860e+00 -1.14805030e+00 0.00000000e+00
      vertex -2.71196788e+00 -1.28266528e+00 0.00000000e+00
      vertex 0.00000000e+00 0.00000000e+00 6.00000000e+00
    endloop
  endfacet
  facet normal -7.98972224e-01 -4.02168821e-01 4.47105832e-01
    outer loop
      vertex -2.71196788e+00 -1.28266528e+00 0.00000000e+00
      vertex -2.64576379e+00 -1.41419021e+00 0.00000000e+00
      vertex 0.00000000e+00 0.00000000e+00 6.00000000e+00
    endloop
  endfacet
  facet normal -7.78276338e-01 -4.40888100e-01 4.47105832e-01
    outer loop
      vertex -2.64576379e+00 -1.41419021e+00 0.00000000e+00
      vertex -2.57318583e+00 -1.54230823e+00 0.00000000e+00
      vertex 0.00000000e+00 0.00000000e+00 6.00000000e+00
    endloop
  endfacet
  facet normal -7.55705517e-01 -4.78545241e-01 4.47105832e-01
    outer loop
      vertex -2.57318583e+00 -1.54230823e+00 0.00000000e+00
      vertex -2.49440884e+00 -1.66671070e+00 0.00000000e+00
      vertex 0.00000000e+00 0.00000000e+00 6.00000000e+00
    endloop
  endfacet
  facet normal -7.31314134e-01 -5.15049524e-01 4.47105832e-01
    outer loop
      vertex -2.49440884e+00 -1.66671070e+00 0.00000000e+00
      vertex -2.40962259e+00 -1.78709791e+00 0.00000000e+00
      vertex 0.00000000e+00 0.00000000e+00 6.00000000e+00
    endloop
  endfacet
  facet normal -7.05160952e-01 -5.50313008e-01 4.47105832e-01
    outer loop
      vertex -2.40962259e+00 -1.78709791e+00 0.00000000e+00
      vertex -2.31903136e+00 -1.90317985e+00 0.00000000e+00
      vertex 0.00000000e+00 0.00000000e+00 6.00000000e+00
    endloop
  endfacet
  facet normal -6.77308975e-01 -5.84250740e-01 4.47105832e-01
    outer loop
      vertex -2.31903136e+00 -1.90317985e+00 0.00000000e+00
      vertex -2.22285338e+00 -2.01467686e+00 0.00000000e+00
      vertex 0.00000000e+00 0.00000000e+00 6.00000000e+00
    endloop
  endfacet
  facet normal -6.47825302e-01 -6.16780961e-01 4.47105832e-01
    outer loop
      vertex -2.22285338e+00 -2.01467686e+00 0.00000000e+00
      vertex -2.12132034e+00 -2.12132034e+00 0.00000000e+00
      vertex 0.00000000e+00 0.00000000e+00 6.00000000e+00
    endloop
  endfacet
  facet normal -6.16780961e-01 -6.47825302e-01 4.47105832e-01
    outer loop
      vertex -2.12132034e+00 -2.12132034e+00 0.00000000e+00
      vertex -2.01467686e+00 -2.22285338e+00 0.00000000e+00
      vertex 0.00000000e+00 0.00000000e+00 6.00000000e+00
    endloop
  endfacet
  facet normal -5.84250740e-01 -6.77308975e-01 4.47105832e-01
    outer loop
      vertex -2.01467686e+00 -2.22285338e+00 0.00000000e+00
      vertex -1.90317985e+00 -2.31903136e+00 0.00000000e+00
      vertex 0.00000000e+00 0.00000000e+00 6.00000000e+00
    endloop
  endfacet
  facet normal -5.50313008e-01 -7.05160952e-01 4.47105832e-01
    outer loop
      vertex -1.90317985e+00 -2.31903136e+00 0.00000000e+00
      vertex -1.78709791e+00 -2.40962259e+00 0.00000000e+00
      vertex 0.00000000e+00 0.00000000e+00 6.00000000e+00
    endloop
  endfacet
  facet normal -5.15049524e-01 -7.31314134e-01 4.47105832e-01
    outer loop
      vertex -1.78709791e+00 -2.40962259e+00 0.00000000e+00
      vertex -1.66671070e+00 -2.49440884e+00 0.00000000e+00
      vertex 0.00000000e+00 0.00000000e+00 6.00000000e+00
    endloop
  endfacet
  facet normal -4.78545241e-01 -7.55705517e-01 4.47105832e-01
    outer loop
      vertex -1.66671070e+00 -2.49440884e+00 0.00000000e+00
      vertex -1.54230823e+00 -2.57318583e+00 0.00000000e+00
      vertex 0.00000000e+00 0.00000000e+00 6.00000000e+00
    endloop
  endfacet
  facet normal -4.40888100e-01 -7.78276338e-01 4.47105832e-01
    outer loop
      vertex -1.54230823e+00 -2.57318583e+00 0.00000000e+00
      vertex -1.41419021e+00 -2.64576379e+00 0.00000000e+00
      vertex 0.00000000e+00 0.00000000e+00 6.00000000e+00
    endloop
  endfacet
  facet normal -4.02168821e-01 -7.98972224e-01 4.47105832e-01
    outer loop
      vertex -1.41419021e+00 -2.64576379e+00 0.00000000e+00
      vertex -1.28266528e+00 -2.71196788e+00 0.00000000e+00
      vertex 0.00000000e+00 0.00000000e+00 6.00000000e+00
    endloop
  endfacet
  facet normal -3.62480682e-01 -8.17743316e-01 4.47105832e-01
    outer loop
      vertex -1.28266528e+00 -2.71196788e+00 0.00000000e+00
      vertex -1.14805030e+00 -2.77163860e+00 0.00000000e+00
      vertex 0.00000000e+00 0.00000000e+00 6.00000000e+00
    endloop
  endfacet
  facet normal -3.21919295e-01 -8.34544392e-01 4.47105832e-01
    outer loop
      vertex -1.14805030e+00 -2.77163860e+00 0.00000000e+00
      vertex -1.01066956e+00 -2.82463220e+00 0.00000000e+00
      vertex 0.00000000e+00 0.00000000e+00 6.00000000e+00
    endloop
  endfacet
  facet normal -2.80582377e-01 -8.49334978e-01 4.47105832e-01
    outer loop
      vertex -1.01066956e+00 -2.82463220e+00 0.00000000e+00
      vertex -8.70854032e-01 -2.87082101e+00 0.00000000e+00
      vertex 0.00000000e+00 0.00000000e+00 6.00000000e+00
    endloop
  endfacet
  facet normal -2.38569511e-01 -8.62079441e-01 4.47105832e-01
    outer loop
      vertex -8.70854032e-01 -2.87082101e+00 0.00000000e+00
      vertex -7.28940540e-01 -2.91009376e+00 0.00000000e+00
      vertex 0.00000000e+00 0.00000000e+00 6.00000000e+00
    endloop
  endfacet
  facet normal -1.95981911e-01 -8.72747080e-01 4.47105832e-01
    outer loop
      vertex -7.28940540e-01 -2.91009376e+00 0.00000000e+00
      vertex -5.85270966e-01 -2.94235584e+00 0.00000000e+00
      vertex 0.00000000e+00 0.00000000e+00 6.00000000e+00
    endloop
  endfacet
  facet normal -1.52922172e-01 -8.81312195e-01 4.47105832e-01
    outer loop
      vertex -5.85270966e-01 -2.94235584e+00 0.00000000e+00
      vertex -4.40191423e-01 -2.96752953e+00 0.00000000e+00
      vertex 0.00000000e+00 0.00000000e+00 6.00000000e+00
    endloop
  endfacet
  facet normal -1.09494031e-01 -8.87754151e-01 4.47105832e-01
    outer loop
      vertex -4.40191423e-01 -2.96752953e+00 0.00000000e+00
      vertex -2.94051421e-01 -2.98555418e+00 0.00000000e+00
      vertex 0.00000000e+00 0.00000000e+00 6.00000000e+00
    endloop
  endfacet
  facet normal -6.58021092e-02 -8.92057430e-01 4.47105832e-01
    outer loop
      vertex -2.94051421e-01 -2.98555418e+00 0.00000000e+00
      vertex -1.47203023e-01 -2.99638637e+00 0.00000000e+00
      vertex 0.00000000e+00 0.00000000e+00 6.00000000e+00
    endloop
  endfacet
  facet normal -2.19516642e-02 -8.94211664e-01 4.47105832e-01
    outer loop
      vertex -1.47203023e-01 -2.99638637e+00 0.00000000e+00
      vertex -5.51091060e-16 -3.00000000e+00 0.00000000e+00
      vertex 0.00000000e+00 0.00000000e+00 6.00000000e+00
    endloop
  endfacet
  facet normal 2.19516642e-02 -8.94211664e-01 4.47105832e-01
    outer loop
      vertex -5.51091060e-16 -3.00000000e+00 0.00000000e+00
      vertex 1.47203023e-01 -2.99638637e+00 0.00000000e+00
      vertex 0.00000000e+00 0.00000000e+00 6.00000000e+00
    endloop
  endfacet
  facet normal 6.58021092e-02 -8.92057430e-01 4.47105832e-01
    outer loop
      vertex 1.47203023e-01 -2.99638637e+00 0.00000000e+00
      vertex 2.94051421e-01 -2.98555418e+00 0.00000000e+00
      vertex 0.00000000e+00 0.00000000e+00 6.00000000e+00
    endloop
  endfacet
  facet normal 1.09494031e-01 -8.87754151e-01 4.47105832e-01
    outer loop
      vertex 2.94051421e-01 -2.98555418e+00 0.00000000e+00
      vertex 4.40191423e-01 -2.96752953e+00 0.00000000e+00
      vertex 0.00000000e+00 0.00000000e+00 6.00000000e+00
    endloop
  endfacet
  facet normal 1.52922172e-01 -8.81312195e-01 4.47105832e-01
    outer loop
      vertex 4.40191423e-01 -2.96752953e+00 0.00000000e+00
      vertex 5.85270966e-01 -2.94235584e+00 0.00000000e+00
      vertex 0.00000000e+00 0.00000000e+00 6.00000000e+00
    endloop
  endfacet
  facet normal 1.95981911e-01 -8.72747080e-01 4.47105832e-01
    outer loop
      vertex 5.85270966e-01 -2.94235584e+00 0.00000000e+00
      vertex 7.28940540e-01 -2.91009376e+00 0.00000000e+00
      vertex 0.00000000e+00 0.00000000e+00 6.00000000e+00
    endloop
  endfacet
  facet normal 2.38569511e-01 -8.62079441e-01 4.47105832e-01
    outer loop
      vertex 7.28940540e-01 -2.91009376e+00 0.00000000e+00
      vertex 8.70854032e-01 -2.87082101e+00 0.00000000e+00
      vertex 0.00000000e+00 0.00000000e+00 6.00000000e+00
    endloop
  endfacet
  facet normal 2.80582377e-01 -8.49334978e-01 4.47105832e-01
    outer loop
      vertex 8.70854032e-01 -2.87082101e+00 0.00000000e+00
      vertex 1.01066956e+00 -2.82463220e+00 0.00000000e+00
      vertex 0.00000000e+00 0.00000000e+00 6.00000000e+00
    endloop
  endfacet
  facet normal 3.21919295e-01 -8.34544392e-01 4.47105832e-01
    outer loop
      vertex 1.01066956e+00 -2.82463220e+00 0.00000000e+00
      vertex 1.14805030e+00 -2.77163860e+00 0.00000000e+00
      vertex 0.00000000e+00 0.00000000e+00 6.00000000e+00
    endloop
  endfacet
  facet normal 3.62480682e-01 -8.17743316e-01 4.47105832e-01
    outer loop
      vertex 1.14805030e+00 -2.77163860e+00 0.00000000e+00
      vertex 1.28266528e+00 -2.71196788e+00 0.00000000e+00
      vertex 0.00000000e+00 0.00000000e+00 6.00000000e+00
    endloop
  endfacet
  facet normal 4.02168821e-01 -7.98972224e-01 4.47105832e-01
    outer loop
      vertex 1.28266528e+00 -2.71196788e+00 0.00000000e+00
      vertex 1.41419021e+00 -2.64576379e+00 0.00000000e+00
      vertex 0.00000000e+00 0.00000000e+00 6.00000000e+00
    endloop
  endfacet
  facet normal 4.40888100e-01 -7.78276338e-01 4.47105832e-01
    outer loop
      vertex 1.41419021e+00 -2.64576379e+00 0.00000000e+00
      vertex 1.54230823e+00 -2.57318583e+00 0.00000000e+00
      vertex 0.00000000e+00 0.00000000e+00 6.00000000e+00
    endloop
  endfacet
  facet normal 4.78545241e-01 -7.55705517e-01 4.47105832e-01
    outer loop
      vertex 1.54230823e+00 -2.57318583e+00 0.00000000e+00
      vertex 1.66671070e+00 -2.49440884e+00 0.00000000e+00
      vertex 0.00000000e+00 0.00000000e+00 6.00000000e+00
    endloop
  endfacet
  facet normal 5.15049524e-01 -7.31314134e-01 4.47105832e-01
    outer loop
      vertex 1.66671070e+00 -2.49440884e+00 0.00000000e+00
      vertex 1.78709791e+00 -2.40962259e+00 0.00000000e+00
      vertex 0.00000000e+00 0.00000000e+00 6.00000000e+00
    endloop
  endfacet
  facet normal 5.50313008e-01 -7.05160952e-01 4.47105832e-01
    outer loop
      vertex 1.78709791e+00 -2.40962259e+00 0.00000000e+00
      vertex 1.90317985e+00 -2.31903136e+00 0.00000000e+00
      vertex 0.00000000e+00 0.00000000e+00 6.00000000e+00
    endloop
  endfacet
  facet normal 5.84250740e-01 -6.77308975e-01 4.47105832e-01
    outer loop
      vertex 1.90317985e+00 -2.31903136e+00 0.00000000e+00
      vertex 2.01467686e+00 -2.22285338e+00 0.00000000e+00
      vertex 0.00000000e+00 0.00000000e+00 6.00000000e+00
    endloop
  endfacet
  facet normal 6.16780961e-01 -6.47825302e-01 4.47105832e-01
    outer loop
      vertex 2.01467686e+00 -2.22285338e+00 0.00000000e+00
      vertex 2.12132034e+00 -2.12132034e+00 0.00000000e+00
      vertex 0.00000000e+00 0.00000000e+00 6.00000000e+00
    endloop
  endfacet
  facet normal 6.47825302e-01 -6.16780961e-01 4.47105832e-01
    outer loop
      vertex 2.12132034e+00 -2.12132034e+00 0.00000000e+00
      vertex 2.22285338e+00 -2.01467686e+00 0.00000000e+00
      vertex 0.00000000e+00 0.00000000e+00 6.00000000e+00
    endloop
  endfacet
  facet normal 6.77308975e-01 -5.84250740e-01 4.47105832e-01
    outer loop
      vertex 2.22285338e+00 -2.01467686e+00 0.00000000e+00
      vertex 2.31903136e+00 -1.90317985e+00 0.00000000e+00
      vertex 0.00000000e+00 0.00000000e+00 6.00000000e+00
    endloop
  endfacet
  facet normal 7.05160952e-01 -5.50313008e-01 4.47105832e-01
    outer loop
      vertex 2.31903136e+00 -1.90317985e+00 0.00000000e+00
      vertex 2.40962259e+00 -1.78709791e+00 0.00000000e+00
      vertex 0.00000000e+00 0.00000000e+00 6.00000000e+00
    endloop
  endfacet
  facet normal 7.31314134e-01 -5.15049524e-01 4.47105832e-01
    outer loop
      vertex 2.40962259e+00 -1.78709791e+00 0.00000000e+00
      vertex 2.49440884e+00 -1.66671070e+00 0.00000000e+00
      vertex 0.00000000e+00 0.00000000e+00 6.00000000e+00
    endloop
  endfacet
  facet normal 7.55705517e-01 -4.78545241e-01 4.47105832e-01
    outer loop
      vertex 2.49440884e+00 -1.66671070e+00 0.00000000e+00
      vertex 2.57318583e+00 -1.54230823e+00 0.00000000e+00
      vertex 0.00000000e+00 0.00000000e+00 6.00000000e+00
    endloop
  endfacet
  facet normal 7.78276338e-01 -4.40888100e-01 4.47105832e-01
    outer loop
      vertex 2.57318583e+00 -1.54230823e+00 0.00000000e+00
      vertex 2.64576379e+00 -1.41419021e+00 0.00000000e+00
      vertex 0.00000000e+00 0.00000000e+00 6.00000000e+00
    endloop
  endfacet
  facet normal 7.98972224e-01 -4.02168821e-01 4.47105832e-01
    outer loop
      vertex 2.64576379e+00 -1.41419021e+00 0.00000000e+00
      vertex 2.71196788e+00 -1.28266528e+00 0.00000000e+00
      vertex 0.00000000e+00 0.00000000e+00 6.00000000e+00
    endloop
  endfacet
  facet normal 8.17743316e-01 -3.62480682e-01 4.47105832e-01
    outer loop
      vertex 2.71196788e+00 -1.28266528e+00 0.00000000e+00
      vertex 2.77163860e+00 -1.14805030e+00 0.00000000e+00
      vertex 0.00000000e+00 0.00000000e+00 6.00000000e+00
    endloop
  endfacet
  facet normal 8.34544392e-01 -3.21919295e-01 4.47105832e-01
    outer loop
      vertex 2.77163860e+00 -1.14805030e+00 0.00000000e+00
      vertex 2.82463220e+00 -1.01066956e+00 0.00000000e+00
      vertex 0.00000000e+00 0.00000000e+00 6.00000000e+00
    endloop
  endfacet
  facet normal 8.49334978e-01 -2.80582377e-01 4.47105832e-01
    outer loop
      vertex 2.82463220e+00 -1.01066956e+00 0.00000000e+00
      vertex 2.87082101e+00 -8.70854032e-01 0.00000000e+00
      vertex 0.00000000e+00 0.00000000e+00 6.00000000e+00
    endloop
  endfacet
  facet normal 8.62079441e-01 -2.38569511e-01 4.47105832e-01
    outer loop
      vertex 2.87082101e+00 -8.70854032e-01 0.00000000e+00
      vertex 2.91009376e+00 -7.28940540e-01 0.00000000e+00
      vertex 0.00000000e+00 0.00000000e+00 6.00000000e+00
    endloop
  endfacet
  facet normal 8.72747080e-01 -1.95981911e-01 4.47105832e-01
    outer loop
      vertex 2.91009376e+00 -7.28940540e-01 0.00000000e+00
      vertex 2.94235584e+00 -5.85270966e-01 0.00000000e+00
      vertex 0.00000000e+00 0.00000000e+00 6.00000000e+00
    endloop
  endfacet
  facet normal 8.81312195e-01 -1.52922172e-01 4.47105832e-01
    outer loop
      vertex 2.94235584e+00 -5.85270966e-01 0.00000000e+00
      vertex 2.96752953e+00 -4.40191423e-01 0.00000000e+00
      vertex 0.00000000e+00 0.00000000e+00 6.00000000e+00
    endloop
  endfacet
  facet normal 8.87754151e-01 -1.09494031e-01 4.47105832e-01
    outer loop
      vertex 2.96752953e+00 -4.40191423e-01 0.00000000e+00
      vertex 2.98555418e+00 -2.94051421e-01 0.00000000e+00
      vertex 0.00000000e+00 0.00000000e+00 6.00000000e+00
    endloop
  endfacet
  facet normal 8.92057430e-01 -6.58021092e-02 4.47105832e-01
    outer loop
      vertex 2.98555418e+00 -2.94051421e-01 0.00000000e+00
      vertex 2.99638637e+00 -1.47203023e-01 0.00000000e+00
      vertex 0.00000000e+00 0.00000000e+00 6.00000000e+00
    endloop
  endfacet
  facet normal 8.94211664e-01 -2.19516642e-02 4.47105832e-01
    outer loop
      vertex 2.99638637e+00 -1.47203023e-01 0.00000000e+00
      vertex 3.00000000e+00 0.00000000e+00 0.00000000e+00
      vertex 0.00000000e+00 0.00000000e+00 6.00000000e+00
    endloop
  endfacet
  facet normal 0.00000000e+00 -0.00000000e+00 -1.00000000e+00
    outer loop
      vertex 2.99638637e+00 1.47203023e-01 0.00000000e+00
      vertex 3.00000000e+00 0.00000000e+00 0.00000000e+00
      vertex 0.00000000e+00 0.00000000e+00 0.00000000e+00
    endloop
  endfacet
  facet normal 0.00000000e+00 -0.00000000e+00 -1.00000000e+00
    outer loop
      vertex 2.98555418e+00 2.94051421e-01 0.00000000e+00
      vertex 2.99638637e+00 1.47203023e-01 0.00000000e+00
      vertex 0.00000000e+00 0.00000000e+00 0.00000000e+00
    endloop
  endfacet
  facet normal 0.00000000e+00 -0.00000000e+00 -1.00000000e+00
    outer loop
      vertex 2.96752953e+00 4.40191423e-01 0.00000000e+00
      vertex 2.98555418e+00 2.94051421e-01 0.00000000e+00
      vertex 0.00000000e+00 0.00000000e+00 0.00000000e+00
    endloop
  endfacet
  facet normal 0.00000000e+00 -0.00000000e+00 -1.00000000e+00
    outer loop
      vertex 2.94235584e+00 5.85270966e-01 0.00000000e+00
      vertex 2.96752953e+00 4.40191423e-01 0.00000000e+00
      vertex 0.00000000e+00 0.00000000e+00 0.00000000e+00
    endloop
  endfacet
  facet normal 0.00000000e+00 -0.00000000e+00 -1.00000000e+00
    outer loop
      vertex 2.91009376e+00 7.28940540e-01 0.00000000e+00
      vertex 2.94235584e+00 5.85270966e-01 0.00000000e+00
      vertex 0.00000000e+00 0.00000000e+00 0.00000000e+00
    endloop
  endfacet
  facet normal 0.00000000e+00 -0.00000000e+00 -1.00000000e+00
    outer loop
      vertex 2.87082101e+00 8.70854032e-01 0.00000000e+00
      vertex 2.91009376e+00 7.28940540e-01 0.00000000e+00
      vertex 0.00000000e+00 0.00000000e+00 0.00000000e+00
    endloop
  endfacet
  facet normal 0.00000000e+00 -0.00000000e+00 -1.00000000e+00
    outer loop
      vertex 2.82463220e+00 1.01066956e+00 0.00000000e+00
      vertex 2.87082101e+00 8.70854032e-01 0.00000000e+00
      vertex 0.00000000e+00 0.00000000e+00 0.00000000e+00
    endloop
  endfacet
  facet normal 0.00000000e+00 -0.00000000e+00 -1.00000000e+00
    outer loop
      vertex 2.77163860e+00 1.14805030e+00 0.00000000e+00
      vertex 2.82463220e+00 1.01066956e+00 0.00000000e+00
      vertex 0.00000000e+00 0.00000000e+00 0.00000000e+00
    endloop
  endfacet
  facet normal 0.00000000e+00 -0.00000000e+00 -1.00000000e+00
    outer loop
      vertex 2.71196788e+00 1.28266528e+00 0.00000000e+00
      vertex 2.77163860e+00 1.14805030e+00 0.00000000e+00
      vertex 0.00000000e+00 0.00000000e+00 0.00000000e+00
    endloop
  endfacet
  facet normal 0.00000000e+00 -0.00000000e+00 -1.00000000e+00
    outer loop
      vertex 2.64576379e+00 1.41419021e+00 0.00000000e+00
      vertex 2.71196788e+00 1.28266528e+00 0.00000000e+00
      vertex 0.00000000e+00 0.00000000e+00 0.00000000e+00
    endloop
  endfacet
  facet normal 0.00000000e+00 -0.00000000e+00 -1.00000000e+00
    outer loop
      vertex 2.57318583e+00 1.54230823e+00 0.00000000e+00
      vertex 2.64576379e+00 1.41419021e+00 0.00000000e+00
      vertex 0.00000000e+00 0.00000000e+00 0.00000000e+00
    endloop
  endfacet
  facet normal 0.00000000e+00 -0.00000000e+00 -1.00000000e+00
    outer loop
      vertex 2.49440884e+00 1.66671070e+00 0.00000000e+00
      vertex 2.57318583e+00 1.54230823e+00 0.00000000e+00
      vertex 0.00000000e+00 0.00000000e+00 0.00000000e+00
    endloop
  endfacet
  facet normal 0.00000000e+00 -0.00000000e+00 -1.00000000e+00
    outer loop
      vertex 2.40962259e+00 1.78709791e+00 0.00000000e+00
      vertex 2.49440884e+00 1.66671070e+00 0.00000000e+00
      vertex 0.00000000e+00 0.00000000e+00 0.00000000e+00
    endloop
  endfacet
  facet normal 0.00000000e+00 -0.00000000e+00 -1.00000000e+00
    outer loop
      vertex 2.31903136e+00 1.90317985e+00 0.00000000e+00
      vertex 2.40962259e+00 1.78709791e+00 0.00000000e+00
      vertex 0.00000000e+00 0.00000000e+00 0.00000000e+00
    endloop
  endfacet
  facet normal 0.00000000e+00 -0.00000000e+00 -1.00000000e+00
    outer loop
      vertex 2.22285338e+00 2.01467686e+00 0.00000000e+00
      vertex 2.31903136e+00 1.90317985e+00 0.00000000e+00
      vertex 0.00000000e+00 0.00000000e+00 0.00000000e+00
    endloop
  endfacet
  facet normal 0.00000000e+00 -0.00000000e+00 -1.00000000e+00
    outer loop
      vertex 2.12132034e+00 2.12132034e+00 0.00000000e+00
      vertex 2.22285338e+00 2.01467686e+00 0.00000000e+00
      vertex 0.00000000e+00 0.00000000e+00 0.00000000e+00
    endloop
  endfacet
  facet normal 0.00000000e+00 -0.00000000e+00 -1.00000000e+00
    outer loop
      vertex 2.01467686e+00 2.22285338e+00 0.00000000e+00
      vertex 2.12132034e+00 2.12132034e+00 0.00000000e+00
      vertex 0.00000000e+00 0.00000000e+00 0.00000000e+00
    endloop
  endfacet
  facet normal 0.00000000e+00 -0.00000000e+00 -1.00000000e+00
    outer loop
      vertex 1.90317985e+00 2.31903136e+00 0.00000000e+00
      vertex 2.01467686e+00 2.22285338e+00 0.00000000e+00
      vertex 0.00000000e+00 0.00000000e+00 0.00000000e+00
    endloop
  endfacet
  facet normal 0.00000000e+00 -0.00000000e+00 -1.00000000e+00
    outer loop
      vertex 1.78709791e+00 2.40962259e+00 0.00000000e+00
      vertex 1.90317985e+00 2.31903136e+00 0.00000000e+00
      vertex 0.00000000e+00 0.00000000e+00 0.00000000e+00
    endloop
  endfacet
  facet normal 0.00000000e+00 -0.00000000e+00 -1.00000000e+00
    outer loop
      vertex 1.66671070e+00 2.49440884e+00 0.00000000e+00
      vertex 1.78709791e+00 2.40962259e+00 0.00000000e+00
      vertex 0.00000000e+00 0.00000000e+00 0.00000000e+00
    endloop
  endfacet
  facet normal 0.00000000e+00 -0.00000000e+00 -1.00000000e+00
    outer loop
      vertex 1.54230823e+00 2.57318583e+00 0.00000000e+00
      vertex 1.66671070e+00 2.49440884e+00 0.00000000e+00
      vertex 0.00000000e+00 0.00000000e+00 0.00000000e+00
    endloop
  endfacet
  facet normal 0.00000000e+00 -0.00000000e+00 -1.00000000e+00
    outer loop
      vertex 1.41419021e+00 2.64576379e+00 0.00000000e+00
      vertex 1.54230823e+00 2.57318583e+00 0.00000000e+00
      vertex 0.00000000e+00 0.00000000e+00 0.00000000e+00
    endloop
  endfacet
  facet normal 0.00000000e+00 -0.00000000e+00 -1.00000000e+00
    outer loop
      vertex 1.28266528e+00 2.71196788e+00 0.00000000e+00
      vertex 1.41419021e+00 2.64576379e+00 0.00000000e+00
      vertex 0.00000000e+00 0.00000000e+00 0.00000000e+00
    endloop
  endfacet
  facet normal 0.00000000e+00 -0.00000000e+00 -1.00000000e+00
    outer loop
      vertex 1.14805030e+00 2.77163860e+00 0.00000000e+00
      vertex 1.28266528e+00 2.71196788e+00 0.00000000e+00
      vertex 0.00000000e+00 0.00000000e+00 0.00000000e+00
    endloop
  endfacet
  facet normal 0.00000000e+00 -0.00000000e+00 -1.00000000e+00
    outer loop
      vertex 1.01066956e+00 2.82463220e+00 0.00000000e+00
      vertex 1.14805030e+00 2.77163860e+00 0.00000000e+00
      vertex 0.00000000e+00 0.00000000e+00 0.00000000e+00
    endloop
  endfacet
  facet normal 0.00000000e+00 -0.00000000e+00 -1.00000000e+00
    outer loop
      vertex 8.70854032e-01 2.87082101e+00 0.00000000e+00
      vertex 1.01066956e+00 2.82463220e+00 0.00000000e+00
      vertex 0.00000000e+00 0.00000000e+00 0.00000000e+00
    endloop
  endfacet
  facet normal 0.00000000e+00 -0.00000000e+00 -1.00000000e+00
    outer loop
      vertex 7.28940540e-01 2.91009376e+00 0.00000000e+00
      vertex 8.70854032e-01 2.87082101e+00 0.00000000e+00
      vertex 0.00000000e+00 0.00000000e+00 0.00000000e+00
    endloop
  endfacet
  facet normal 0.00000000e+00 -0.00000000e+00 -1.00000000e+00
    outer loop
      vertex 5.85270966e-01 2.94235584e+00 0.00000000e+00
      vertex 7.28940540e-01 2.91009376e+00 0.00000000e+00
      vertex 0.00000000e+00 0.00000000e+00 0.00000000e+00
    endloop
  endfacet
  facet normal 0.00000000e+00 -0.00000000e+00 -1.00000000e+00
    outer loop
      vertex 4.40191423e-01 2.96752953e+00 0.00000000e+00
      vertex 5.85270966e-01 2.94235584e+00 0.00000000e+00
      vertex 0.00000000e+00 0.00000000e+00 0.00000000e+00
    endloop
  endfacet
  facet normal 0.00000000e+00 -0.00000000e+00 -1.00000000e+00
    outer loop
      vertex 2.94051421e-01 2.98555418e+00 0.00000000e+00
      vertex 4.40191423e-01 2.96752953e+00 0.00000000e+00
      vertex 0.00000000e+00 0.00000000e+00 0.00000000e+00
    endloop
  endfacet
  facet normal 0.00000000e+00 -0.00000000e+00 -1.00000000e+00
    outer loop
      vertex 1.47203023e-01 2.99638637e+00 0.00000000e+00
      vertex 2.94051421e-01 2.98555418e+00 0.00000000e+00
      vertex 0.00000000e+00 0.00000000e+00 0.00000000e+00
    endloop
  endfacet
  facet normal 0.00000000e+00 -0.00000000e+00 -1.00000000e+00
    outer loop
      vertex 1.83697020e-16 3.00000000e+00 0.00000000e+00
      vertex 1.47203023e-01 2.99638637e+00 0.00000000e+00
      vertex 0.00000000e+00 0.00000000e+00 0.00000000e+00
    endloop
  endfacet
  facet normal 0.00000000e+00 0.00000000e+00 -1.00000000e+00
    outer loop
      vertex -1.47203023e-01 2.99638637e+00 0.00000000e+00
      vertex 1.83697020e-16 3.00000000e+00 0.00000000e+00
      vertex 0.00000000e+00 0.00000000e+00 0.00000000e+00
    endloop
  endfacet
  facet normal 0.00000000e+00 0.00000000e+00 -1.00000000e+00
    outer loop
      vertex -2.94051421e-01 2.98555418e+00 0.00000000e+00
      vertex -1.47203023e-01 2.99638637e+00 0.00000000e+00
      vertex 0.00000000e+00 0.00000000e+00 0.00000000e+00
    endloop
  endfacet
  facet normal 0.00000000e+00 0.00000000e+00 -1.00000000e+00
    outer loop
      vertex -4.40191423e-01 2.96752953e+00 0.00000000e+00
      vertex -2.94051421e-01 2.98555418e+00 0.00000000e+00
      vertex 0.00000000e+00 0.00000000e+00 0.00000000e+00
    endloop
  endfacet
  facet normal 0.00000000e+00 0.00000000e+00 -1.00000000e+00
    outer loop
      vertex -5.85270966e-01 2.94235584e+00 0.00000000e+00
      vertex -4.40191423e-01 2.96752953e+00 0.00000000e+00
      vertex 0.00000000e+00 0.00000000e+00 0.00000000e+00
    endloop
  endfacet
  facet normal 0.00000000e+00 0.00000000e+00 -1.00000000e+00
    outer loop
      vertex -7.28940540e-01 2.91009376e+00 0.00000000e+00
      vertex -5.85270966e-01 2.94235584e+00 0.00000000e+00
      vertex 0.00000000e+00 0.00000000e+00 0.00000000e+00
    endloop
  endfacet
  facet normal 0.00000000e+00 0.00000000e+00 -1.00000000e+00
    outer loop
      vertex -8.70854032e-01 2.87082101e+00 0.00000000e+00
      vertex -7.28940540e-01 2.91009376e+00 0.00000000e+00
      vertex 0.00000000e+00 0.00000000e+00 0.00000000e+00
    endloop
  endfacet
  facet normal 0.00000000e+00 0.00000000e+00 -1.00000000e+00
    outer loop
      vertex -1.01066956e+00 2.82463220e+00 0.00000000e+00
      vertex -8.70854032e-01 2.87082101e+00 0.00000000e+00
      vertex 0.00000000e+00 0.00000000e+00 0.00000000e+00
    endloop
  endfacet
  facet normal 0.00000000e+00 0.00000000e+00 -1.00000000e+00
    outer loop
      vertex -1.14805030e+00 2.77163860e+00 0.00000000e+00
      vertex -1.01066956e+00 2.82463220e+00 0.00000000e+00
      vertex 0.00000000e+00 0.00000000e+00 0.00000000e+00
    endloop
  endfacet
  facet normal 0.00000000e+00 0.00000000e+00 -1.00000000e+00
    outer loop
      vertex -1.28266528e+00 2.71196788e+00 0.00000000e+00
      vertex -1.14805030e+00 2.77163860e+00 0.00000000e+00
      vertex 0.00000000e+00 0.00000000e+00 0.00000000e+00
    endloop
  endfacet
  facet normal 0.00000000e+00 0.00000000e+00 -1.00000000e+00
    outer loop
      vertex -1.41419021e+00 2.64576379e+00 0.00000000e+00
      vertex -1.28266528e+00 2.71196788e+00 0.00000000e+00
      vertex 0.00000000e+00 0.00000000e+00 0.00000000e+00
    endloop
  endfacet
  facet normal 0.00000000e+00 0.00000000e+00 -1.00000000e+00
    outer loop
      vertex -1.54230823e+00 2.57318583e+00 0.00000000e+00
      vertex -1.41419021e+00 2.64576379e+00 0.00000000e+00
      vertex 0.00000000e+00 0.00000000e+00 0.00000000e+00
    endloop
  endfacet
  facet normal 0.00000000e+00 0.00000000e+00 -1.00000000e+00
    outer loop
      vertex -1.66671070e+00 2.49440884e+00 0.00000000e+00
      vertex -1.54230823e+00 2.57318583e+00 0.00000000e+00
      vertex 0.00000000e+00 0.00000000e+00 0.00000000e+00
    endloop
  endfacet
  facet normal 0.00000000e+00 0.00000000e+00 -1.00000000e+00
    outer loop
      vertex -1.78709791e+00 2.40962259e+00 0.00000000e+00
      vertex -1.66671070e+00 2.49440884e+00 0.00000000e+00
      vertex 0.00000000e+00 0.00000000e+00 0.00000000e+00
    endloop
  endfacet
  facet normal 0.00000000e+00 0.00000000e+00 -1.00000000e+00
    outer loop
      vertex -1.90317985e+00 2.31903136e+00 0.00000000e+00
      vertex -1.78709791e+00 2.40962259e+00 0.00000000e+00
      vertex 0.00000000e+00 0.00000000e+00 0.00000000e+00
    endloop
  endfacet
  facet normal 0.00000000e+00 0.00000000e+00 -1.00000000e+00
    outer loop
      vertex -2.01467686e+00 2.22285338e+00 0.00000000e+00
      vertex -1.90317985e+00 2.31903136e+00 0.00000000e+00
      vertex 0.00000000e+00 0.00000000e+00 0.00000000e+00
    endloop
  endfacet
  facet normal 0.00000000e+00 0.00000000e+00 -1.00000000e+00
    outer loop
      vertex -2.12132034e+00 2.12132034e+00 0.00000000e+00
      vertex -2.01467686e+00 2.22285338e+00 0.00000000e+00
      vertex 0.00000000e+00 0.00000000e+00 0.00000000e+00
    endloop
  endfacet
  facet normal 0.00000000e+00 0.00000000e+00 -1.00000000e+00
    outer loop
      vertex -2.22285338e+00 2.01467686e+00 0.00000000e+00
      vertex -2.12132034e+00 2.12132034e+00 0.00000000e+00
      vertex 0.00000000e+00 0.00000000e+00 0.00000000e+00
    endloop
  endfacet
  facet normal 0.00000000e+00 0.00000000e+00 -1.00000000e+00
    outer loop
      vertex -2.31903136e+00 1.90317985e+00 0.00000000e+00
      vertex -2.22285338e+00 2.01467686e+00 0.00000000e+00
      vertex 0.00000000e+00 0.00000000e+00 0.00000000e+00
    endloop
  endfacet
  facet normal 0.00000000e+00 0.00000000e+00 -1.00000000e+00
    outer loop
      vertex -2.40962259e+00 1.78709791e+00 0.00000000e+00
      vertex -2.31903136e+00 1.90317985e+00 0.00000000e+00
      vertex 0.00000000e+00 0.00000000e+00 0.00000000e+00
    endloop
  endfacet
  facet normal 0.00000000e+00 0.00000000e+00 -1.00000000e+00
    outer loop
      vertex -2.49440884e+00 1.66671070e+00 0.00000000e+00
      vertex -2.40962259e+00 1.78709791e+00 0.00000000e+00
      vertex 0.00000000e+00 0.00000000e+00 0.00000000e+00
    endloop
  endfacet
  facet normal 0.00000000e+00 0.00000000e+00 -1.00000000e+00
    outer loop
      vertex -2.57318583e+00 1.54230823e+00 0.00000000e+00
      vertex -2.49440884e+00 1.66671070e+00 0.00000000e+00
      vertex 0.00000000e+00 0.00000000e+00 0.00000000e+00
    endloop
  endfacet
  facet normal 0.00000000e+00 0.00000000e+00 -1.00000000e+00
    outer loop
      vertex -2.64576379e+00 1.41419021e+00 0.00000000e+00
      vertex -2.57318583e+00 1.54230823e+00 0.00000000e+00
      vertex 0.00000000e+00 0.00000000e+00 0.00000000e+00
    endloop
  endfacet
  facet normal 0.00000000e+00 0.00000000e+00 -1.00000000e+00
    outer loop
      vertex -2.71196788e+00 1.28266528e+00 0.00000000e+00
      vertex -2.64576379e+00 1.41419021e+00 0.00000000e+00
      vertex 0.00000000e+00 0.00000000e+00 0.00000000e+00
    endloop
  endfacet
  facet normal 0.00000000e+00 0.00000000e+00 -1.00000000e+00
    outer loop
      vertex -2.77163860e+00 1.14805030e+00 0.00000000e+00
      vertex -2.71196788e+00 1.28266528e+00 0.00000000e+00
      vertex 0.00000000e+00 0.00000000e+00 0.00000000e+00
    endloop
  endfacet
  facet normal 0.00000000e+00 0.00000000e+00 -1.00000000e+00
    outer loop
      vertex -2.82463220e+00 1.01066956e+00 0.00000000e+00
      vertex -2.77163860e+00 1.14805030e+00 0.00000000e+00
      vertex 0.00000000e+00 0.00000000e+00 0.00000000e+00
    endloop
  endfacet
  facet normal 0.00000000e+00 0.00000000e+00 -1.00000000e+00
    outer loop
      vertex -2.87082101e+00 8.70854032e-01 0.00000000e+00
      vertex -2.82463220e+00 1.01066956e+00 0.00000000e+00
      vertex 0.00000000e+00 0.00000000e+00 0.00000000e+00
    endloop
  endfacet
  facet normal 0.00000000e+00 0.00000000e+00 -1.00000000e+00
    outer loop
      vertex -2.91009376e+00 7.28940540e-01 0.00000000e+00
      vertex -2.87082101e+00 8.70854032e-01 0.00000000e+00
      vertex 0.00000000e+00 0.00000000e+00 0.00000000e+00
    endloop
  endfacet
  facet normal 0.00000000e+00 0.00000000e+00 -1.00000000e+00
    outer loop
      vertex -2.94235584e+00 5.85270966e-01 0.00000000e+00
      vertex -2.91009376e+00 7.28940540e-01 0.00000000e+00
      vertex 0.00000000e+00 0.00000000e+00 0.00000000e+00
    endloop
  endfacet
  facet normal 0.00000000e+00 0.00000000e+00 -1.00000000e+00
    outer loop
      vertex -2.96752953e+00 4.40191423e-01 0.00000000e+00
      vertex -2.94235584e+00 5.85270966e-01 0.00000000e+00
      vertex 0.00000000e+00 0.00000000e+00 0.00000000e+00
    endloop
  endfacet
  facet normal 0.00000000e+00 0.00000000e+00 -1.00000000e+00
    outer loop
      vertex -2.98555418e+00 2.94051421e-01 0.00000000e+00
      vertex -2.96752953e+00 4.40191423e-01 0.00000000e+00
      vertex 0.00000000e+00 0.00000000e+00 0.00000000e+00
    endloop
  endfacet
  facet normal 0.00000000e+00 0.00000000e+00 -1.00000000e+00
    outer loop
      vertex -2.99638637e+00 1.47203023e-01 0.00000000e+00
      vertex -2.98555418e+00 2.94051421e-01 0.00000000e+00
      vertex 0.00000000e+00 0.00000000e+00 0.00000000e+00
    endloop
  endfacet
  facet normal 0.00000000e+00 0.00000000e+00 -1.00000000e+00
    outer loop
      vertex -3.00000000e+00 3.67394040e-16 0.00000000e+00
      vertex -2.99638637e+00 1.47203023e-01 0.00000000e+00
      vertex 0.00000000e+00 0.00000000e+00 0.00000000e+00
    endloop
  endfacet
  facet normal 0.00000000e+00 0.00000000e+00 -1.00000000e+00
    outer loop
      vertex -2.99638637e+00 -1.47203023e-01 0.00000000e+00
      vertex -3.00000000e+00 3.67394040e-16 0.00000000e+00
      vertex 0.00000000e+00 0.00000000e+00 0.00000000e+00
    endloop
  endfacet
  facet normal 0.00000000e+00 0.00000000e+00 -1.00000000e+00
    outer loop
      vertex -2.98555418e+00 -2.94051421e-01 0.00000000e+00
      vertex -2.99638637e+00 -1.47203023e-01 0.00000000e+00
      vertex 0.00000000e+00 0.00000000e+00 0.00000000e+00
    endloop
  endfacet
  facet normal 0.00000000e+00 0.00000000e+00 -1.00000000e+00
    outer loop
      vertex -2.96752953e+00 -4.40191423e-01 0.00000000e+00
      vertex -2.98555418e+00 -2.94051421e-01 0.00000000e+00
      vertex 0.00000000e+00 0.00000000e+00 0.00000000e+00
    endloop
  endfacet
  facet normal 0.00000000e+00 0.00000000e+00 -1.00000000e+00
    outer loop
      vertex -2.94235584e+00 -5.85270966e-01 0.00000000e+00
      vertex -2.96752953e+00 -4.40191423e-01 0.00000000e+00
      vertex 0.00000000e+00 0.00000000e+00 0.00000000e+00
    endloop
  endfacet
  facet normal 0.00000000e+00 0.00000000e+00 -1.00000000e+00
    outer loop
      vertex -2.91009376e+00 -7.28940540e-01 0.00000000e+00
      vertex -2.94235584e+00 -5.85270966e-01 0.00000000e+00
      vertex 0.00000000e+00 0.00000000e+00 0.00000000e+00
    endloop
  endfacet
  facet normal 0.00000000e+00 0.00000000e+00 -1.00000000e+00
    outer loop
      vertex -2.87082101e+00 -8.70854032e-01 0.00000000e+00
      vertex -2.91009376e+00 -7.28940540e-01 0.00000000e+00
      vertex 0.00000000e+00 0.00000000e+00 0.00000000e+00
    endloop
  endfacet
  facet normal 0.00000000e+00 0.00000000e+00 -1.00000000e+00
    outer loop
      vertex -2.82463220e+00 -1.01066956e+00 0.00000000e+00
      vertex -2.87082101e+00 -8.70854032e-01 0.00000000e+00
      vertex 0.00000000e+00 0.00000000e+00 0.00000000e+00
    endloop
  endfacet
  facet normal 0.00000000e+00 0.00000000e+00 -1.00000000e+00
    outer loop
      vertex -2.77163860e+00 -1.14805030e+00 0.00000000e+00
      vertex -2.82463220e+00 -1.01066956e+00 0.00000000e+00
      vertex 0.00000000e+00 0.00000000e+00 0.00000000e+00
    endloop
  endfacet
  facet normal 0.00000000e+00 0.00000000e+00 -1.00000000e+00
    outer loop
      vertex -2.71196788e+00 -1.28266528e+00 0.00000000e+00
      vertex -2.77163860e+00 -1.14805030e+00 0.00000000e+00
      vertex 0.00000000e+00 0.00000000e+00 0.00000000e+00
    endloop
  endfacet
  facet normal 0.00000000e+00 0.00000000e+00 -1.00000000e+00
    outer loop
      vertex -2.64576379e+00 -1.41419021e+00 0.00000000e+00
      vertex -2.71196788e+00 -1.28266528e+00 0.00000000e+00
      vertex 0.00000000e+00 0.00000000e+00 0.00000000e+00
    endloop
  endfacet
  facet normal 0.00000000e+00 0.00000000e+00 -1.00000000e+00
    outer loop
      vertex -2.57318583e+00 -1.54230823e+00 0.00000000e+00
      vertex -2.64576379e+00 -1.41419021e+00 0.00000000e+00
      vertex 0.00000000e+00 0.00000000e+00 0.00000000e+00
    endloop
  endfacet
  facet normal 0.00000000e+00 0.00000000e+00 -1.00000000e+00
    outer loop
      vertex -2.49440884e+00 -1.66671070e+00 0.00000000e+00
      vertex -2.57318583e+00 -1.54230823e+00 0.00000000e+00
      vertex 0.00000000e+00 0.00000000e+00 0.00000000e+00
    endloop
  endfacet
  facet normal 0.00000000e+00 0.00000000e+00 -1.00000000e+00
    outer loop
      vertex -2.40962259e+00 -1.78709791e+00 0.00000000e+00
      vertex -2.49440884e+00 -1.66671070e+00 0.00000000e+00
      vertex 0.00000000e+00 0.00000000e+00 0.00000000e+00
    endloop
  endfacet
  facet normal 0.00000000e+00 0.00000000e+00 -1.00000000e+00
    outer loop
      vertex -2.31903136e+00 -1.90317985e+00 0.00000000e+00
      vertex -2.40962259e+00 -1.78709791e+00 0.00000000e+00
      vertex 0.00000000e+00 0.00000000e+00 0.00000000e+00
    endloop
  endfacet
  facet normal 0.00000000e+00 0.00000000e+00 -1.00000000e+00
    outer loop
      vertex -2.22285338e+00 -2.01467686e+00 0.00000000e+00
      vertex -2.31903136e+00 -1.90317985e+00 0.00000000e+00
      vertex 0.00000000e+00 0.00000000e+00 0.00000000e+00
    endloop
  endfacet
  facet normal 0.00000000e+00 0.00000000e+00 -1.00000000e+00
    outer loop
      vertex -2.12132034e+00 -2.12132034e+00 0.00000000e+00
      vertex -2.22285338e+00 -2.01467686e+00 0.00000000e+00
      vertex 0.00000000e+00 0.00000000e+00 0.00000000e+00
    endloop
  endfacet
  facet normal 0.00000000e+00 0.00000000e+00 -1.00000000e+00
    outer loop
      vertex -2.01467686e+00 -2.22285338e+00 0.00000000e+00
      vertex -2.12132034e+00 -2.12132034e+00 0.00000000e+00
      vertex 0.00000000e+00 0.00000000e+00 0.00000000e+00
    endloop
  endfacet
  facet normal 0.00000000e+00 0.00000000e+00 -1.00000000e+00
    outer loop
      vertex -1.90317985e+00 -2.31903136e+00 0.00000000e+00
      vertex -2.01467686e+00 -2.22285338e+00 0.00000000e+00
      vertex 0.00000000e+00 0.00000000e+00 0.00000000e+00
    endloop
  endfacet
  facet normal 0.00000000e+00 0.00000000e+00 -1.00000000e+00
    outer loop
      vertex -1.78709791e+00 -2.40962259e+00 0.00000000e+00
      vertex -1.90317985e+00 -2.31903136e+00 0.00000000e+00
      vertex 0.00000000e+00 0.00000000e+00 0.00000000e+00
    endloop
  endfacet
  facet normal 0.00000000e+00 0.00000000e+00 -1.00000000e+00
    outer loop
      vertex -1.66671070e+00 -2.49440884e+00 0.00000000e+00
      vertex -1.78709791e+00 -2.40962259e+00 0.00000000e+00
      vertex 0.00000000e+00 0.00000000e+00 0.00000000e+00
    endloop
  endfacet
  facet normal 0.00000000e+00 0.00000000e+00 -1.00000000e+00
    outer loop
      vertex -1.54230823e+00 -2.57318583e+00 0.00000000e+00
      vertex -1.66671070e+00 -2.49440884e+00 0.00000000e+00
      vertex 0.00000000e+00 0.00000000e+00 0.00000000e+00
    endloop
  endfacet
  facet normal 0.00000000e+00 0.00000000e+00 -1.00000000e+00
    outer loop
      vertex -1.41419021e+00 -2.64576379e+00 0.00000000e+00
      vertex -1.54230823e+00 -2.57318583e+00 0.00000000e+00
      vertex 0.00000000e+00 0.00000000e+00 0.00000000e+00
    endloop
  endfacet
  facet normal 0.00000000e+00 0.00000000e+00 -1.00000000e+00
    outer loop
      vertex -1.28266528e+00 -2.71196788e+00 0.00000000e+00
      vertex -1.41419021e+00 -2.64576379e+00 0.00000000e+00
      vertex 0.00000000e+00 0.00000000e+00 0.00000000e+00
    endloop
  endfacet
  facet normal 0.00000000e+00 0.00000000e+00 -1.00000000e+00
    outer loop
      vertex -1.14805030e+00 -2.77163860e+00 0.00000000e+00
      vertex -1.28266528e+00 -2.71196788e+00 0.00000000e+00
      vertex 0.00000000e+00 0.00000000e+00 0.00000000e+00
    endloop
  endfacet
  facet normal 0.00000000e+00 0.00000000e+00 -1.00000000e+00
    outer loop
      vertex -1.01066956e+00 -2.82463220e+00 0.00000000e+00
      vertex -1.14805030e+00 -2.77163860e+00 0.00000000e+00
      vertex 0.00000000e+00 0.00000000e+00 0.00000000e+00
    endloop
  endfacet
  facet normal 0.00000000e+00 0.00000000e+00 -1.00000000e+00
    outer loop
      vertex -8.70854032e-01 -2.87082101e+00 0.00000000e+00
      vertex -1.01066956e+00 -2.82463220e+00 0.00000000e+00
      vertex 0.00000000e+00 0.00000000e+00 0.00000000e+00
    endloop
  endfacet
  facet normal 0.00000000e+00 0.00000000e+00 -1.00000000e+00
    outer loop
      vertex -7.28940540e-01 -2.91009376e+00 0.00000000e+00
      vertex -8.70854032e-01 -2.87082101e+00 0.00000000e+00
      vertex 0.00000000e+00 0.00000000e+00 0.00000000e+00
    endloop
  endfacet
  facet normal 0.00000000e+00 0.00000000e+00 -1.00000000e+00
    outer loop
      vertex -5.85270966e-01 -2.94235584e+00 0.00000000e+00
      vertex -7.28940540e-01 -2.91009376e+00 0.00000000e+00
      vertex 0.00000000e+00 0.00000000e+00 0.00000000e+00
    endloop
  endfacet
  facet normal 0.00000000e+00 0.00000000e+00 -1.00000000e+00
    outer loop
      vertex -4.40191423e-01 -2.96752953e+00 0.00000000e+00
      vertex -5.85270966e-01 -2.94235584e+00 0.00000000e+00
      vertex 0.00000000e+00 0.00000000e+00 0.00000000e+00
    endloop
  endfacet
  facet normal 0.00000000e+00 0.00000000e+00 -1.00000000e+00
    outer loop
      vertex -2.94051421e-01 -2.98555418e+00 0.00000000e+00
      vertex -4.40191423e-01 -2.96752953e+00 0.00000000e+00
      vertex 0.00000000e+00 0.00000000e+00 0.00000000e+00
    endloop
  endfacet
  facet normal 0.00000000e+00 0.00000000e+00 -1.00000000e+00
    outer loop
      vertex -1.47203023e-01 -2.99638637e+00 0.00000000e+00
      vertex -2.94051421e-01 -2.98555418e+00 0.00000000e+00
      vertex 0.00000000e+00 0.00000000e+00 0.00000000e+00
    endloop
  endfacet
  facet normal 0.00000000e+00 0.00000000e+00 -1.00000000e+00
    outer loop
      vertex -5.51091060e-16 -3.00000000e+00 0.00000000e+00
      vertex -1.47203023e-01 -2.99638637e+00 0.00000000e+00
      vertex 0.00000000e+00 0.00000000e+00 0.00000000e+00
    endloop
  endfacet
  facet normal -0.00000000e+00 0.00000000e+00 -1.00000000e+00
    outer loop
      vertex 1.47203023e-01 -2.99638637e+00 0.00000000e+00
      vertex -5.51091060e-16 -3.00000000e+00 0.00000000e+00
      vertex 0.00000000e+00 0.00000000e+00 0.00000000e+00
    endloop
  endfacet
  facet normal -0.00000000e+00 0.00000000e+00 -1.00000000e+00
    outer loop
      vertex 2.94051421e-01 -2.98555418e+00 0.00000000e+00
      vertex 1.47203023e-01 -2.99638637e+00 0.00000000e+00
      vertex 0.00000000e+00 0.00000000e+00 0.00000000e+00
    endloop
  endfacet
  facet normal -0.00000000e+00 0.00000000e+00 -1.00000000e+00
    outer loop
      vertex 4.40191423e-01 -2.96752953e+00 0.00000000e+00
      vertex 2.94051421e-01 -2.98555418e+00 0.00000000e+00
      vertex 0.00000000e+00 0.00000000e+00 0.00000000e+00
    endloop
  endfacet
  facet normal -0.00000000e+00 0.00000000e+00 -1.00000000e+00
    outer loop
      vertex 5.85270966e-01 -2.94235584e+00 0.00000000e+00
      vertex 4.40191423e-01 -2.96752953e+00 0.00000000e+00
      vertex 0.00000000e+00 0.00000000e+00 0.00000000e+00
    endloop
  endfacet
  facet normal -0.00000000e+00 0.00000000e+00 -1.00000000e+00
    outer loop
      vertex 7.28940540e-01 -2.91009376e+00 0.00000000e+00
      vertex 5.85270966e-01 -2.94235584e+00 0.00000000e+00
      vertex 0.00000000e+00 0.00000000e+00 0.00000000e+00
    endloop
  endfacet
  facet normal -0.00000000e+00 0.00000000e+00 -1.00000000e+00
    outer loop
      vertex 8.70854032e-01 -2.87082101e+00 0.00000000e+00
      vertex 7.28940540e-01 -2.91009376e+00 0.00000000e+00
      vertex 0.00000000e+00 0.00000000e+00 0.00000000e+00
    endloop
  endfacet
  facet normal -0.00000000e+00 0.00000000e+00 -1.00000000e+00
    outer loop
      vertex 1.01066956e+00 -2.82463220e+00 0.00000000e+00
      vertex 8.70854032e-01 -2.87082101e+00 0.00000000e+00
      vertex 0.00000000e+00 0.00000000e+00 0.00000000e+00
    endloop
  endfacet
  facet normal -0.00000000e+00 0.00000000e+00 -1.00000000e+00
    outer loop
      vertex 1.14805030e+00 -2.77163860e+00 0.00000000e+00
      vertex 1.01066956e+00 -2.82463220e+00 0.00000000e+00
      vertex 0.00000000e+00 0.00000000e+00 0.00000000e+00
    endloop
  endfacet
  facet normal -0.00000000e+00 0.00000000e+00 -1.00000000e+00
    outer loop
      vertex 1.28266528e+00 -2.71196788e+00 0.00000000e+00
      vertex 1.14805030e+00 -2.77163860e+00 0.00000000e+00
      vertex 0.00000000e+00 0.00000000e+00 0.00000000e+00
    endloop
  endfacet
  facet normal -0.00000000e+00 0.00000000e+00 -1.00000000e+00
    outer loop
      vertex 1.41419021e+00 -2.64576379e+00 0.00000000e+00
      vertex 1.28266528e+00 -2.71196788e+00 0.00000000e+00
      vertex 0.00000000e+00 0.00000000e+00 0.00000000e+00
    endloop
  endfacet
  facet normal -0.00000000e+00 0.00000000e+00 -1.00000000e+00
    outer loop
      vertex 1.54230823e+00 -2.57318583e+00 0.00000000e+00
      vertex 1.41419021e+00 -2.64576379e+00 0.00000000e+00
      vertex 0.00000000e+00 0.00000000e+00 0.00000000e+00
    endloop
  endfacet
  facet normal -0.00000000e+00 0.00000000e+00 -1.00000000e+00
    outer loop
      vertex 1.66671070e+00 -2.49440884e+00 0.00000000e+00
      vertex 1.54230823e+00 -2.57318583e+00 0.00000000e+00
      vertex 0.00000000e+00 0.00000000e+00 0.00000000e+00
    endloop
  endfacet
  facet normal -0.00000000e+00 0.00000000e+00 -1.00000000e+00
    outer loop
      vertex 1.78709791e+00 -2.40962259e+00 0.00000000e+00
      vertex 1.66671070e+00 -2.49440884e+00 0.00000000e+00
      vertex 0.00000000e+00 0.00000000e+00 0.00000000e+00
    endloop
  endfacet
  facet normal -0.00000000e+00 0.00000000e+00 -1.00000000e+00
    outer loop
      vertex 1.90317985e+00 -2.31903136e+00 0.00000000e+00
      vertex 1.78709791e+00 -2.40962259e+00 0.00000000e+00
      vertex 0.00000000e+00 0.00000000e+00 0.00000000e+00
    endloop
  endfacet
  facet normal -0.00000000e+00 0.00000000e+00 -1.00000000e+00
    outer loop
      vertex 2.01467686e+00 -2.22285338e+00 0.00000000e+00
      vertex 1.90317985e+00 -2.31903136e+00 0.00000000e+00
      vertex 0.00000000e+00 0.00000000e+00 0.00000000e+00
    endloop
  endfacet
  facet normal -0.00000000e+00 0.00000000e+00 -1.00000000e+00
    outer loop
      vertex 2.12132034e+00 -2.12132034e+00 0.00000000e+00
      vertex 2.01467686e+00 -2.22285338e+00 0.00000000e+00
      vertex 0.00000000e+00 0.00000000e+00 0.00000000e+00
    endloop
  endfacet
  facet normal -0.00000000e+00 0.00000000e+00 -1.00000000e+00
    outer loop
      vertex 2.22285338e+00 -2.01467686e+00 0.00000000e+00
      vertex 2.12132034e+00 -2.12132034e+00 0.00000000e+00
      vertex 0.00000000e+00 0.00000000e+00 0.00000000e+00
    endloop
  endfacet
  facet normal -0.00000000e+00 0.00000000e+00 -1.00000000e+00
    outer loop
      vertex 2.31903136e+00 -1.90317985e+00 0.00000000e+00
      vertex 2.22285338e+00 -2.01467686e+00 0.00000000e+00
      vertex 0.00000000e+00 0.00000000e+00 0.00000000e+00
    endloop
  endfacet
  facet normal -0.00000000e+00 0.00000000e+00 -1.00000000e+00
    outer loop
      vertex 2.40962259e+00 -1.78709791e+00 0.00000000e+00
      vertex 2.31903136e+00 -1.90317985e+00 0.00000000e+00
      vertex 0.00000000e+00 0.00000000e+00 0.00000000e+00
    endloop
  endfacet
  facet normal -0.00000000e+00 0.00000000e+00 -1.00000000e+00
    outer loop
      vertex 2.49440884e+00 -1.66671070e+00 0.00000000e+00
      vertex 2.40962259e+00 -1.78709791e+00 0.00000000e+00
      vertex 0.00000000e+00 0.00000000e+00 0.00000000e+00
    endloop
  endfacet
  facet normal -0.00000000e+00 0.00000000e+00 -1.00000000e+00
    outer loop
      vertex 2.57318583e+00 -1.54230823e+00 0.00000000e+00
      vertex 2.49440884e+00 -1.66671070e+00 0.00000000e+00
      vertex 0.00000000e+00 0.00000000e+00 0.00000000e+00
    endloop
  endfacet
  facet normal -0.00000000e+00 0.00000000e+00 -1.00000000e+00
    outer loop
      vertex 2.64576379e+00 -1.41419021e+00 0.00000000e+00
      vertex 2.57318583e+00 -1.54230823e+00 0.00000000e+00
      vertex 0.00000000e+00 0.00000000e+00 0.00000000e+00
    endloop
  endfacet
  facet normal -0.00000000e+00 0.00000000e+00 -1.00000000e+00
    outer loop
      vertex 2.71196788e+00 -1.28266528e+00 0.00000000e+00
      vertex 2.64576379e+00 -1.41419021e+00 0.00000000e+00
      vertex 0.00000000e+00 0.00000000e+00 0.00000000e+00
    endloop
  endfacet
  facet normal -0.00000000e+00 0.00000000e+00 -1.00000000e+00
    outer loop
      vertex 2.77163860e+00 -1.14805030e+00 0.00000000e+00
      vertex 2.71196788e+00 -1.28266528e+00 0.00000000e+00
      vertex 0.00000000e+00 0.00000000e+00 0.00000000e+00
    endloop
  endfacet
  facet normal -0.00000000e+00 0.00000000e+00 -1.00000000e+00
    outer loop
      vertex 2.82463220e+00 -1.01066956e+00 0.00000000e+00
      vertex 2.77163860e+00 -1.14805030e+00 0.00000000e+00
      vertex 0.00000000e+00 0.00000000e+00 0.00000000e+00
    endloop
  endfacet
  facet normal -0.00000000e+00 0.00000000e+00 -1.00000000e+00
    outer loop
      vertex 2.87082101e+00 -8.70854032e-01 0.00000000e+00
      vertex 2.82463220e+00 -1.01066956e+00 0.00000000e+00
      vertex 0.00000000e+00 0.00000000e+00 0.00000000e+00
    endloop
  endfacet
  facet normal -0.00000000e+00 0.00000000e+00 -1.00000000e+00
    outer loop
      vertex 2.91009376e+00 -7.28940540e-01 0.00000000e+00
      vertex 2.87082101e+00 -8.70854032e-01 0.00000000e+00
      vertex 0.00000000e+00 0.00000000e+00 0.00000000e+00
    endloop
  endfacet
  facet normal -0.00000000e+00 0.00000000e+00 -1.00000000e+00
    outer loop
      vertex 2.94235584e+00 -5.85270966e-01 0.00000000e+00
      vertex 2.91009376e+00 -7.28940540e-01 0.00000000e+00
      vertex 0.00000000e+00 0.00000000e+00 0.00000000e+00
    endloop
  endfacet
  facet normal -0.00000000e+00 0.00000000e+00 -1.00000000e+00
    outer loop
      vertex 2.96752953e+00 -4.40191423e-01 0.00000000e+00
      vertex 2.94235584e+00 -5.85270966e-01 0.00000000e+00
      vertex 0.00000000e+00 0.00000000e+00 0.00000000e+00
    endloop
  endfacet
  facet normal -0.00000000e+00 0.00000000e+00 -1.00000000e+00
    outer loop
      vertex 2.98555418e+00 -2.94051421e-01 0.00000000e+00
      vertex 2.96752953e+00 -4.40191423e-01 0.00000000e+00
      vertex 0.00000000e+00 0.00000000e+00 0.00000000e+00
    endloop
  endfacet
  facet normal -0.00000000e+00 0.00000000e+00 -1.00000000e+00
    outer loop
      vertex 2.99638637e+00 -1.47203023e-01 0.00000000e+00
      vertex 2.98555418e+00 -2.94051421e-01 0.00000000e+00
      vertex 0.00000000e+00 0.00000000e+00 0.00000000e+00
    endloop
  endfacet
  facet normal -0.00000000e+00 0.00000000e+00 -1.00000000e+00
    outer loop
      vertex 3.00000000e+00 0.00000000e+00 0.00000000e+00
      vertex 2.99638637e+00 -1.47203023e-01 0.00000000e+00
      vertex 0.00000000e+00 0.00000000e+00 0.00000000e+00
    endloop
  endfacet
endsolid cone